<?xml version="1.0" encoding="utf-8"?>
<!-- Generator: Adobe Illustrator 24.2.3, SVG Export Plug-In . SVG Version: 6.00 Build 0)  -->
<svg version="1.1" id="Layer_1" xmlns="http://www.w3.org/2000/svg" xmlns:xlink="http://www.w3.org/1999/xlink" x="0px" y="0px"
	 viewBox="0 0 538.54 690.6" style="enable-background:new 0 0 538.54 690.6;" xml:space="preserve">
<style type="text/css">
	.st0{fill:#515254;stroke:#5A3D15;stroke-miterlimit:10;}
</style>
<path class="st0" d="M511.35,690.6h27.19c-0.28-15.81-0.23-31.84-0.69-48.09c-0.23-8.12-0.58-16.29-1.18-24.51
	c-0.6-8.22-1.45-16.48-2.69-24.76c-1.25-8.27-2.89-16.56-5.1-24.78c-2.21-8.21-5-16.36-8.5-24.25c-3.5-7.89-7.72-15.53-12.66-22.69
	c-4.85-7.01-10.38-13.54-16.45-19.47c-1.27-1.6-2.56-3.18-3.87-4.72c1.24-5.18,2.42-10.38,3.41-15.65l0.48-2.45l0.12-0.61l0.11-0.62
	l0.21-1.23l0.85-4.93c0.26-1.65,0.49-3.31,0.74-4.97l0.18-1.24c0.06-0.41,0.12-0.83,0.17-1.24l0.3-2.5l0.3-2.5
	c0.05-0.42,0.1-0.83,0.15-1.25l0.12-1.26l0.47-5.03l0.33-5.06c0.06-0.84,0.09-1.69,0.12-2.54l0.09-2.55
	c0.2-6.79,0.05-13.64-0.58-20.5c-0.63-6.86-1.74-13.72-3.42-20.47l-0.31-1.27c-0.11-0.42-0.23-0.84-0.35-1.26l-0.71-2.51
	c-0.22-0.84-0.51-1.66-0.77-2.49l-0.8-2.48l-0.89-2.45c-0.3-0.82-0.59-1.64-0.92-2.44l-0.98-2.41l-0.24-0.6l-0.26-0.59l-0.53-1.19
	l-0.53-1.19c-0.18-0.39-0.35-0.79-0.54-1.18l-0.25-0.52c0.05-0.07,0.09-0.14,0.14-0.21c0.87-1.28,1.78-2.53,2.72-3.72
	c1.89-2.37,3.94-4.51,6.39-6.21c1.22-0.85,2.54-1.6,3.95-2.25c1.41-0.65,2.9-1.21,4.43-1.7c3.07-0.99,6.29-1.75,9.5-2.51
	c-3.3-0.15-6.59-0.29-9.97-0.17c-1.69,0.06-3.4,0.2-5.13,0.47c-1.73,0.28-3.47,0.7-5.19,1.28c-1.72,0.58-3.39,1.35-4.98,2.22
	c-1.6,0.87-3.11,1.86-4.56,2.89c-0.61,0.43-1.2,0.88-1.79,1.33l-0.04-0.06l-0.63-1.12l-0.66-1.1l-1.32-2.19l-1.37-2.14l-0.69-1.07
	c-0.23-0.35-0.47-0.7-0.7-1.05l-1.41-2.09l-1.45-2.05l-0.72-1.02l-0.74-1.01l-1.48-2.01l-1.5-1.97l-0.75-0.99l-0.76-0.97l-1.52-1.94
	l-0.51-0.65l-0.23-0.22c-6.89-6.51-13.9-12.74-20.84-18.94c-6.94-6.2-13.82-12.36-20.47-18.7c-6.65-6.34-13.07-12.86-19.04-19.73
	c-2.89-3.33-5.68-6.74-8.33-10.25l0.72-0.59c0.33-0.27,0.66-0.54,0.98-0.82l1.92-1.7c2.52-2.31,4.91-4.75,7.15-7.33
	c4.42-5.2,8.18-10.99,10.82-17.24c2.65-6.24,4.15-12.93,4.24-19.59c0.06-3.33-0.28-6.64-0.97-9.86c-0.67-3.22-1.79-6.32-3.26-9.19
	c1.05,3.06,1.7,6.22,1.91,9.39c0.23,3.17,0.1,6.34-0.4,9.44c-0.97,6.2-3.22,12.1-6.39,17.36c-3.17,5.28-7.23,9.93-11.79,13.98
	c-2.3,2.01-4.73,3.86-7.24,5.59l-1.91,1.26c-0.31,0.21-0.64,0.41-0.97,0.61l-0.68,0.41c-0.71-1.07-1.4-2.16-2.08-3.25
	c-4.77-7.69-8.79-15.85-11.78-24.42c-3-8.56-4.95-17.52-5.83-26.64c-0.44-4.56-0.62-9.15-0.55-13.76l0.04-1.73
	c0.02-0.58,0.02-1.15,0.05-1.73l0.18-3.46l0.28-3.45c0.04-0.58,0.11-1.15,0.17-1.72l0.19-1.72c0.53-4.59,1.27-9.18,2.18-13.73
	c0.94-4.55,2.05-9.07,3.29-13.56c-1.56,4.39-3,8.82-4.27,13.32c-1.25,4.5-2.32,9.06-3.19,13.66l-0.31,1.73
	c-0.1,0.58-0.22,1.15-0.3,1.73l-0.53,3.48l-0.44,3.5c-0.08,0.58-0.12,1.17-0.18,1.76l-0.17,1.76c-0.4,4.69-0.57,9.42-0.45,14.15
	c0.22,9.46,1.57,18.96,4.07,28.18c2.49,9.23,6.11,18.16,10.56,26.64c3.93,7.47,8.49,14.59,13.42,21.39c-0.57,0-1.14,0-1.67,0.06
	c-0.37,0.03-0.75,0.05-1.11,0.09l-1.07,0.14c-0.72,0.09-1.38,0.23-2.07,0.35l-0.51,0.09l-0.49,0.11l-0.99,0.21
	c-0.66,0.14-1.3,0.29-1.95,0.44l-1.9,0.45c-0.62,0.14-1.24,0.3-1.86,0.43c-2.48,0.57-4.97,1.04-7.46,1.38
	c-2.49,0.34-5,0.53-7.52,0.49c-2.51-0.04-5.03-0.32-7.52-0.89c-2.49-0.57-4.93-1.42-7.29-2.5c2.14,1.47,4.43,2.77,6.87,3.79
	c2.44,1.03,5.02,1.79,7.65,2.3c2.63,0.51,5.32,0.77,7.99,0.88c2.67,0.1,5.35,0.07,7.99-0.07c0.67-0.02,1.32-0.07,1.98-0.11
	l1.94-0.11c0.63-0.03,1.28-0.08,1.9-0.09l0.94-0.03l0.47-0.02l0.46,0c0.6,0,1.23-0.02,1.8,0.02l0.87,0.03
	c0.28,0.02,0.55,0.06,0.83,0.08c0.56,0.04,1.05,0.16,1.56,0.24c0.24,0.06,0.48,0.13,0.72,0.19c0.12,0.03,0.24,0.06,0.35,0.1
	l0.34,0.13l0.34,0.12l0.17,0.06c0.06,0.02,0.11,0.05,0.17,0.08l0.68,0.3c0.11,0.04,0.23,0.12,0.35,0.18l0.35,0.18l0.35,0.18
	c0.12,0.06,0.24,0.14,0.36,0.21l0.72,0.43c0.24,0.14,0.5,0.31,0.75,0.47c0.25,0.16,0.5,0.31,0.75,0.48l0.77,0.51
	c1.36,0.92,2.76,1.88,4.18,2.86c2.95,3.5,5.97,6.94,9.03,10.31c12.49,13.76,25.69,26.61,37.9,39.89l1.14,1.69l0.65,0.97l0.63,0.97
	l1.26,1.94l1.22,1.94l0.61,0.97l0.59,0.98l1.18,1.95l1.13,1.97c0.19,0.33,0.38,0.65,0.56,0.98l0.54,0.99l1.07,1.98l1.01,1.99l0.51,1
	l0.48,1.01l0.95,2.01l0.89,2.03l0.44,1.01c0.15,0.34,0.27,0.68,0.41,1.02l0.82,2.05c0.14,0.34,0.26,0.69,0.38,1.03l0.37,1.03
	l0.37,1.03l0.19,0.52l0.17,0.52l0.67,2.08c0.24,0.69,0.42,1.4,0.62,2.1l0.6,2.1l0.52,2.12c0.17,0.71,0.36,1.41,0.49,2.13l0.44,2.14
	c0.07,0.36,0.15,0.71,0.21,1.07l0.18,1.08c0.99,5.74,1.51,11.58,1.62,17.47c0.11,5.89-0.19,11.83-0.79,17.78l-0.24,2.23
	c-0.08,0.74-0.15,1.49-0.27,2.23l-0.62,4.47l-0.75,4.47l-0.19,1.12c-0.06,0.37-0.14,0.74-0.21,1.12l-0.44,2.23l-0.43,2.23
	c-0.07,0.37-0.15,0.74-0.24,1.11l-0.25,1.11l-0.99,4.45l-1.1,4.45l-0.27,1.11l-0.14,0.56l-0.15,0.55l-0.46,1.68
	c-0.37-0.33-0.73-0.66-1.1-0.98c-4.86-4.29-9.86-8.38-14.97-12.3c-5.11-3.92-10.32-7.68-15.62-11.28
	c-5.3-3.61-10.69-7.06-16.16-10.38c-0.87-0.52-1.73-1.04-2.6-1.56c0.51-3.06,0.94-6.13,1.28-9.23c0.74-6.84,0.98-13.81,0.43-20.76
	l-0.22-2.6l-0.34-2.59l-0.17-1.3c-0.06-0.43-0.15-0.86-0.22-1.29l-0.46-2.57c-0.04-0.21-0.08-0.43-0.13-0.64l-0.14-0.64l-0.29-1.27
	l-0.29-1.27c-0.1-0.42-0.22-0.84-0.33-1.26l-0.68-2.5l-0.7-2.25c0.58-0.7,1.18-1.39,1.81-2.05c1.5-1.55,3.17-2.96,5.01-4.2
	c1.84-1.24,3.84-2.3,5.96-3.17c2.11-0.88,4.33-1.58,6.6-2.14c-2.34-0.04-4.7,0.07-7.07,0.39c-2.37,0.32-4.75,0.86-7.08,1.66
	c-2.33,0.8-4.61,1.87-6.77,3.17c-0.18,0.11-0.36,0.22-0.53,0.33c-0.47-1.28-0.95-2.55-1.45-3.8l-0.23-0.59
	c-0.08-0.2-0.14-0.38-0.24-0.61l-0.27-0.66l-0.29-0.64l-0.15-0.32l-0.15-0.31l-0.31-0.61c-0.22-0.39-0.42-0.8-0.65-1.18
	c-0.89-1.55-1.84-3.01-2.83-4.42c-1.98-2.82-4.08-5.47-6.21-8.07c-2.13-2.6-4.31-5.14-6.49-7.67c-4.36-5.05-8.73-10.05-12.93-15.19
	c-4.19-5.13-8.24-10.39-11.76-15.99c-1.75-2.8-3.37-5.69-4.7-8.72c-1.32-3.03-2.38-6.2-2.81-9.51c0.2,3.33,1.04,6.61,2.18,9.76
	c1.14,3.16,2.58,6.2,4.16,9.15c3.17,5.91,6.9,11.5,10.77,16.96c2.83,3.98,5.75,7.89,8.67,11.78c-0.54,0.21-1.08,0.43-1.62,0.67
	c-1.62,0.71-3.22,1.53-4.71,2.57c-0.74,0.52-1.46,1.09-2.11,1.73c-0.65,0.64-1.24,1.37-1.7,2.17c-0.47,0.79-0.78,1.67-0.9,2.55
	c-0.12,0.88-0.04,1.74,0.16,2.53c0.1-0.82,0.33-1.59,0.71-2.26c0.38-0.67,0.86-1.22,1.44-1.67c1.13-0.91,2.53-1.42,3.96-1.77
	c1.44-0.35,2.94-0.5,4.46-0.57c1.52-0.06,3.06-0.02,4.59,0.07l-0.05-0.38c1.66,2.22,3.3,4.44,4.9,6.68
	c1.91,2.68,3.77,5.39,5.43,8.15c0.83,1.38,1.6,2.77,2.27,4.15c0.17,0.35,0.32,0.69,0.48,1.04l0.22,0.52l0.11,0.26l0.1,0.26
	l0.19,0.51l0.17,0.51c0.05,0.16,0.12,0.37,0.18,0.56l0.18,0.59c0.63,1.97,1.21,3.93,1.75,5.89c-0.03,0.03-0.06,0.05-0.09,0.08
	l0.15,0.13c0.3,1.1,0.59,2.2,0.86,3.31l0.56,2.35l0.47,2.36c0.08,0.39,0.16,0.78,0.23,1.18l0.18,1.18l0.18,1.18l0.09,0.59
	c0.03,0.2,0.06,0.39,0.08,0.59l0.26,2.37c0.04,0.39,0.1,0.79,0.12,1.18l0.07,1.19l0.15,2.37l0.04,2.38
	c0.08,6.35-0.57,12.73-1.7,19.06c-0.31,1.76-0.66,3.51-1.04,5.27c-1.63-0.9-3.26-1.79-4.91-2.67c-1.42-0.76-2.85-1.5-4.31-2.24
	l-1.1-0.55l-0.57-0.28l-0.4-0.2c-0.1-0.05-0.21-0.1-0.27-0.13l-0.17-0.08c-0.26-0.11-0.57-0.25-0.88-0.39
	c-0.31-0.14-0.62-0.29-0.94-0.45c-2.54-1.24-5.13-2.65-7.66-4.15c-5.07-3-10-6.36-14.74-9.97c-9.48-7.24-18.21-15.54-25.98-24.68
	c-7.77-9.13-14.6-19.11-20.32-29.71c-5.73-10.6-10.37-21.83-13.91-33.43c-1.77-5.8-3.27-11.69-4.5-17.65
	c-0.62-2.98-1.17-5.98-1.66-8.98l-0.36-2.26l-0.33-2.26l-0.63-4.61l-0.31-2.3l-0.16-1.15l-0.14-1.15c-0.18-1.53-0.37-3.05-0.54-4.58
	l-0.47-4.59l-0.4-4.59c-0.49-6.13-0.79-12.27-0.88-18.41c-0.08-6.14,0.05-12.28,0.43-18.4c0.37-6.12,1.02-12.22,1.93-18.28
	c0.9-6.06,2.11-12.07,3.59-18.02c0.76-2.97,1.58-5.92,2.47-8.85c0.91-2.93,1.89-5.83,2.95-8.71c1.03-2.82,2.15-5.6,3.33-8.36
	c3.59-6.37,7.7-12.45,12.42-18.02c2.84-3.33,5.9-6.47,9.26-9.23c1.68-1.38,3.44-2.65,5.29-3.78c0.23-0.14,0.47-0.27,0.7-0.41
	c0.24-0.13,0.46-0.28,0.7-0.4c0.48-0.25,0.95-0.51,1.44-0.73c0.97-0.47,1.96-0.87,2.97-1.21c2.04-0.69,4.2-1.16,6.37-1.7
	c2.17-0.54,4.37-1.19,6.43-2.23l0.76-0.4c0.25-0.15,0.49-0.3,0.74-0.45c0.12-0.08,0.25-0.15,0.37-0.23l0.35-0.25
	c0.23-0.17,0.47-0.33,0.7-0.51c0.44-0.37,0.9-0.72,1.3-1.13c0.2-0.2,0.42-0.39,0.62-0.6l0.58-0.63c1.52-1.71,2.71-3.66,3.7-5.67
	c1.96-4.06,3.19-8.37,4.17-12.7c0.13-0.54,0.23-1.09,0.34-1.63l0.33-1.63c0.19-1.09,0.39-2.19,0.58-3.28
	c0.17-1.1,0.34-2.19,0.5-3.29l0.43-3.3l-0.55,3.28c-0.19,1.09-0.41,2.18-0.61,3.27c-0.22,1.09-0.46,2.17-0.69,3.25l-0.39,1.62
	c-0.13,0.54-0.25,1.08-0.4,1.61l-0.43,1.6c-0.07,0.27-0.14,0.54-0.22,0.8l-0.24,0.79c-0.16,0.53-0.32,1.06-0.49,1.58l-0.54,1.57
	c-0.75,2.07-1.59,4.12-2.61,6.05c-1.03,1.93-2.25,3.76-3.73,5.32l-0.56,0.58c-0.19,0.19-0.4,0.36-0.6,0.54
	c-0.39,0.37-0.83,0.68-1.25,1.01c-0.21,0.16-0.44,0.3-0.66,0.45l-0.33,0.22c-0.11,0.07-0.23,0.13-0.35,0.2l-0.7,0.39l-0.72,0.35
	c-1.94,0.91-4.04,1.45-6.19,1.91c-2.15,0.46-4.36,0.86-6.55,1.52c-1.1,0.33-2.19,0.72-3.23,1.19c-0.53,0.22-1.04,0.48-1.55,0.73
	c-0.26,0.12-0.51,0.26-0.76,0.39c-0.25,0.14-0.51,0.26-0.75,0.41c-1.98,1.12-3.87,2.39-5.67,3.76c-3.6,2.75-6.86,5.89-9.9,9.21
	c-1,1.1-1.97,2.22-2.92,3.36c1.4-3.11,2.78-6.23,4.13-9.37c4.96-11.54,9.47-23.3,13.22-35.3c3.75-12,6.75-24.26,8.57-36.71
	c0.14-0.96,0.27-1.92,0.4-2.89c0.02,0,0.04,0,0.07,0c2.55,0,4.54-0.28,6.04-0.62c0.09,0.17,0.18,0.34,0.3,0.5
	c0.79,1.06,2.2,1.57,4,1.57c3.81,0,9.41-2.24,14.77-6.23c7.81-5.8,9.86-16.46,9.88-16.56l0.02-0.1l-0.1-0.01
	c-0.11-0.01-10.9-1.11-18.71,4.7c-3.81,2.84-6.94,6.12-8.81,9.25c-1.26,2.11-1.84,3.99-1.73,5.48c-1.36,0.31-3.2,0.57-5.55,0.58
	c0.59-4.79,0.98-9.61,1.16-14.44c0.22-6.28,0.07-12.58-0.56-18.83c-0.62-6.25-1.72-12.45-3.35-18.5
	c-1.63-6.05-3.81-11.95-6.54-17.56c2.54,5.71,4.5,11.66,5.92,17.72c1.42,6.07,2.29,12.24,2.69,18.45c0.4,6.2,0.34,12.43-0.09,18.62
	c-0.44,6.19-1.24,12.36-2.35,18.46c-1.13,6.24-2.57,12.43-4.25,18.54c-1.23-0.39-3.18-1.23-5.66-2.99c1-3.75-1.32-10.41-6.13-16.65
	c-5.94-7.71-16.86-9.4-16.96-9.42l-0.09-0.01l-0.01,0.09c-0.01,0.11-1.15,11.1,4.79,18.8c2.9,3.77,6.26,6.82,9.47,8.6
	c1.9,1.05,3.61,1.59,5.04,1.59c0.99,0,1.85-0.26,2.53-0.78c0.31-0.24,0.57-0.53,0.79-0.86c2.52,1.76,4.53,2.62,5.86,3.03
	c-1.51,5.37-3.21,10.7-5.05,15.96c-4.11,11.71-8.96,23.16-14.25,34.4c-2.33,4.95-4.75,9.86-7.21,14.77
	c-0.05-0.13-0.1-0.25-0.14-0.38c-0.12-0.3-0.23-0.6-0.35-0.9c-0.25-0.59-0.49-1.19-0.78-1.78c-0.26-0.59-0.57-1.16-0.86-1.74
	c-0.31-0.57-0.62-1.14-0.97-1.69c-0.67-1.11-1.41-2.18-2.22-3.19c-0.81-1.01-1.69-1.97-2.62-2.86c-1.86-1.79-3.94-3.31-6.06-4.67
	c-1.06-0.68-2.13-1.33-3.19-1.97l-1.59-0.96c-0.52-0.32-1.04-0.65-1.54-0.99c-1.01-0.68-2-1.41-2.94-2.19
	c-0.94-0.78-1.83-1.61-2.64-2.52c-0.81-0.91-1.55-1.88-2.15-2.94c-0.31-0.52-0.56-1.08-0.79-1.64c-0.1-0.29-0.22-0.57-0.3-0.86
	c-0.04-0.15-0.09-0.29-0.13-0.44l-0.1-0.44c-0.12-0.6-0.21-1.2-0.22-1.81c-0.03-0.61,0.02-1.22,0.11-1.83
	c0.19-1.22,0.57-2.41,1.11-3.53c-0.6,1.09-1.07,2.26-1.33,3.49c-0.12,0.61-0.21,1.24-0.22,1.87c-0.03,0.63,0.02,1.27,0.11,1.89
	l0.08,0.47c0.03,0.16,0.07,0.31,0.1,0.46c0.06,0.31,0.17,0.61,0.25,0.92c0.21,0.6,0.43,1.2,0.72,1.76c0.55,1.15,1.27,2.21,2.05,3.2
	c0.79,1,1.66,1.92,2.58,2.79c0.92,0.87,1.89,1.68,2.9,2.45c0.5,0.38,1.01,0.75,1.53,1.12l1.54,1.07c1.02,0.71,2.04,1.41,3.03,2.13
	c1.98,1.45,3.85,3,5.47,4.76c0.81,0.88,1.56,1.8,2.25,2.77c0.68,0.97,1.3,1.99,1.85,3.04c0.28,0.52,0.53,1.06,0.79,1.6
	c0.24,0.55,0.48,1.09,0.69,1.65c0.23,0.55,0.42,1.12,0.62,1.68c0.1,0.28,0.18,0.57,0.27,0.86c0.09,0.29,0.18,0.57,0.26,0.86
	c0.26,0.91,0.49,1.82,0.7,2.74c-1.03,2.05-2.05,4.11-3.05,6.22c-1.36,2.87-2.64,5.78-3.84,8.73c-1.2,2.95-2.32,5.93-3.37,8.93
	c-1.04,3.01-1.99,6.05-2.89,9.1c-0.5,1.74-0.97,3.48-1.42,5.23c-4.07,0.48-8.18,0.49-12.22-0.09c-2.49-0.36-4.95-0.94-7.34-1.74
	c-2.39-0.8-4.71-1.82-6.92-3.03c-2.22-1.21-4.33-2.62-6.33-4.18c-1.99-1.57-3.86-3.3-5.61-5.16c-0.86-0.94-1.7-1.89-2.5-2.89
	c-0.8-0.99-1.56-2.01-2.29-3.06l-1.08-1.61c-0.37-0.56-0.74-1.1-1.12-1.64c-0.75-1.09-1.51-2.16-2.25-3.23
	c-3-4.27-5.88-8.58-8.26-13.15c-2.4-4.56-4.26-9.38-5.4-14.38c-0.57-2.5-0.95-5.04-1.14-7.6c-0.19-2.56-0.18-5.12,0-7.7
	c0.35-5.16,1.18-10.29,2.78-15.18c0.21-0.61,0.41-1.22,0.65-1.81c0.22-0.6,0.47-1.19,0.72-1.78c0.52-1.17,1.07-2.33,1.7-3.44
	c1.26-2.22,2.76-4.31,4.54-6.12c1.78-1.8,3.84-3.34,6.14-4.33c1.19-0.51,2.41-1.03,3.61-1.58c1.2-0.55,2.39-1.12,3.56-1.72
	c4.7-2.4,9.2-5.19,13.39-8.4c1.05-0.8,2.07-1.63,3.08-2.48c1-0.86,1.99-1.73,2.94-2.65c0.96-0.9,1.88-1.85,2.8-2.8
	c0.45-0.49,0.9-0.97,1.33-1.46c0.43-0.5,0.87-0.99,1.29-1.5c3.38-4.05,6.26-8.52,8.46-13.31c2.21-4.79,3.73-9.87,4.57-15.06
	c0.85-5.19,0.97-10.48,0.59-15.7c-0.2-2.62-0.55-5.22-0.99-7.8l-0.36-1.93c-0.12-0.64-0.27-1.28-0.41-1.92l-0.21-0.96
	c-0.07-0.32-0.16-0.64-0.23-0.95l-0.47-1.91l0.45,1.91c0.07,0.32,0.15,0.64,0.22,0.96l0.19,0.96c0.13,0.64,0.27,1.28,0.38,1.93
	l0.33,1.93c0.4,2.59,0.72,5.18,0.88,7.8c0.3,5.22,0.11,10.47-0.81,15.61c-0.9,5.14-2.49,10.15-4.73,14.85
	c-2.24,4.7-5.15,9.07-8.53,13.01c-0.42,0.5-0.86,0.97-1.29,1.46c-0.44,0.48-0.89,0.95-1.33,1.42c-0.91,0.93-1.83,1.84-2.8,2.72
	c-0.95,0.89-1.94,1.73-2.94,2.57c-1.01,0.82-2.02,1.63-3.07,2.4c-4.17,3.1-8.65,5.79-13.31,8.08c-1.17,0.57-2.35,1.12-3.53,1.65
	c-1.19,0.53-2.39,1.02-3.61,1.52c-0.31,0.13-0.62,0.27-0.93,0.42c-0.31,0.15-0.61,0.3-0.91,0.47c-0.3,0.16-0.59,0.34-0.88,0.52
	c-0.28,0.19-0.57,0.36-0.85,0.56c-1.11,0.78-2.15,1.65-3.11,2.6c-1.93,1.9-3.54,4.08-4.89,6.39c-0.68,1.16-1.28,2.36-1.83,3.57
	c-0.27,0.61-0.54,1.22-0.78,1.85c-0.25,0.62-0.47,1.25-0.7,1.88c-1.74,5.05-2.66,10.33-3.1,15.61c-0.22,2.65-0.28,5.33-0.11,8
	c0.16,2.67,0.52,5.32,1.07,7.94c1.11,5.23,2.99,10.29,5.39,15.03c2.39,4.76,5.29,9.22,8.24,13.56c0.74,1.09,1.48,2.16,2.2,3.24
	c0.36,0.54,0.72,1.08,1.07,1.62l1.08,1.67c0.75,1.12,1.54,2.2,2.37,3.27c0.83,1.06,1.7,2.08,2.6,3.09c1.81,1.99,3.77,3.85,5.86,5.56
	c2.1,1.69,4.34,3.23,6.7,4.57c2.36,1.34,4.84,2.47,7.4,3.37c2.56,0.9,5.21,1.56,7.9,1.99c2.68,0.43,5.4,0.61,8.12,0.58
	c1.24-0.01,2.47-0.07,3.71-0.17c-0.76,3.21-1.45,6.43-2.04,9.68c-1.16,6.26-2.05,12.57-2.65,18.9c-0.61,6.33-0.97,12.68-1.1,19.04
	c-0.08,3.68-0.07,7.36,0,11.04c-0.27-0.06-0.53-0.13-0.8-0.19c-2.28-0.56-4.56-1.25-6.81-2.05c-2.25-0.82-4.48-1.72-6.67-2.73
	c-2.19-1.03-4.36-2.1-6.48-3.3c-1.07-0.58-2.11-1.21-3.16-1.84c-0.53-0.3-1.04-0.64-1.55-0.97l-1.55-0.98l-1.52-1.03
	c-0.51-0.34-1.02-0.68-1.51-1.04c-0.99-0.72-2.01-1.41-2.97-2.17c-3.93-2.96-7.68-6.17-11.26-9.59
	c-7.17-6.84-13.62-14.49-19.42-22.64l-2.13-3.09l-0.53-0.77l-0.51-0.79l-1.03-1.57l-1.03-1.57l-0.99-1.6l-0.99-1.6l-0.5-0.8
	l-0.49-0.82l-3.91-6.55c-1.3-2.18-2.58-4.39-3.87-6.58c-10.28-17.57-20.23-35.37-30.22-53.15c-1.6-2.84-3.2-5.69-4.8-8.53
	c2.44-2.11,4.56-4.55,6.26-7.21c1.74-2.7,3.06-5.61,4-8.6c0.24-0.75,0.44-1.5,0.64-2.26c0.18-0.76,0.35-1.52,0.49-2.29
	c0.14-0.77,0.26-1.54,0.35-2.32c0.05-0.39,0.08-0.78,0.11-1.18c0.01-0.2,0.03-0.4,0.04-0.61l0.01-0.32l0-0.09
	c0-0.01,0-0.03-0.01,0.03l0.01-0.12c0.09-1.4,0.22-2.83,0.37-4.26c0.15-1.43,0.33-2.85,0.52-4.27c0.4-2.84,0.89-5.68,1.49-8.48
	c0.61-2.81,1.33-5.59,2.25-8.31c0.46-1.36,0.96-2.7,1.53-4.01c0.57-1.31,1.21-2.6,1.94-3.83c0.37-0.61,0.76-1.22,1.18-1.79
	c0.42-0.58,0.87-1.14,1.36-1.66c0.97-1.06,2.1-1.98,3.4-2.65c-1.36,0.53-2.61,1.34-3.71,2.32c-0.56,0.48-1.08,1.01-1.57,1.56
	c-0.5,0.55-0.96,1.13-1.41,1.72c-0.88,1.19-1.68,2.44-2.41,3.73c-0.73,1.29-1.39,2.61-2,3.95c-1.23,2.69-2.26,5.46-3.18,8.26
	c-0.92,2.8-1.72,5.64-2.43,8.51c-0.35,1.43-0.68,2.87-0.99,4.32c-0.31,1.45-0.59,2.89-0.85,4.38l-0.02,0.15l-0.02,0.16l-0.01,0.05
	l-0.03,0.22l-0.08,0.48c-0.06,0.32-0.12,0.65-0.2,0.98c-0.15,0.65-0.32,1.31-0.51,1.96c-0.19,0.65-0.4,1.29-0.63,1.92
	c-0.24,0.63-0.48,1.26-0.75,1.88c-1.07,2.46-2.43,4.77-4.07,6.81c-1.38,1.72-2.96,3.24-4.68,4.55c-2.23-3.92-4.47-7.84-6.73-11.74
	l-1.92-3.31l-1.95-3.3l-1.95-3.29l-1.98-3.27c-2.63-4.37-5.38-8.67-8.2-12.92c2.63,4.37,5.18,8.78,7.61,13.26l1.83,3.35l1.8,3.37
	l1.79,3.37l1.77,3.39c4.71,9.04,9.32,18.13,13.92,27.23c7.88,15.6,15.72,31.23,23.8,46.75c-1.29,1.65-2.7,3.19-4.24,4.58
	c-2.03,1.83-4.29,3.39-6.73,4.6c-2.44,1.22-5.07,2.08-7.79,2.62c-1.36,0.27-2.75,0.44-4.16,0.55c-0.35,0.02-0.7,0.06-1.05,0.07
	l-1.06,0.04c-0.35,0.01-0.71,0-1.06,0c-0.18,0-0.35,0-0.53,0l-0.53-0.02c-0.36-0.01-0.71-0.02-1.07-0.04l-1.07-0.07l-0.27-0.02
	l-0.28-0.02l-0.57-0.05l-1.13-0.09l-4.52-0.37c-3.01-0.24-5.99-0.49-8.89-0.88c-2.91-0.39-5.7-0.98-8.26-2.02
	c-0.16-0.06-0.32-0.12-0.48-0.19l-0.47-0.23l-0.93-0.45l-0.9-0.52l-0.45-0.26c-0.15-0.09-0.29-0.2-0.43-0.29l-0.87-0.59
	c-0.29-0.2-0.56-0.43-0.84-0.65l-0.42-0.33c-0.14-0.11-0.28-0.22-0.41-0.34l-0.8-0.72l-0.9-0.8c-0.34-0.29-0.69-0.55-1.03-0.79
	c-0.69-0.48-1.37-0.9-2.06-1.28c-1.38-0.78-2.76-1.46-4.16-2.11c-2.79-1.3-5.61-2.45-8.44-3.56c-5.67-2.21-11.38-4.22-17.12-6.16
	c-5.74-1.93-11.5-3.79-17.28-5.59c-5.78-1.8-11.57-3.55-17.37-5.23c5.72,1.97,11.41,4.01,17.08,6.09
	c5.67,2.08,11.33,4.22,16.95,6.43c5.62,2.22,11.2,4.5,16.69,6.96c2.74,1.24,5.46,2.51,8.09,3.9c1.31,0.69,2.6,1.41,3.82,2.19
	c0.61,0.38,1.19,0.79,1.73,1.2c0.27,0.21,0.52,0.42,0.74,0.63l0.76,0.75l0.85,0.84c0.14,0.14,0.29,0.27,0.44,0.41l0.45,0.4
	c0.31,0.26,0.6,0.54,0.92,0.79l0.97,0.74c0.16,0.12,0.32,0.25,0.49,0.37l0.51,0.33l1.03,0.67l1.08,0.59l0.54,0.29
	c0.18,0.09,0.37,0.17,0.56,0.26l1.12,0.51c0.38,0.15,0.76,0.29,1.14,0.43c0.76,0.3,1.53,0.51,2.3,0.75l0.29,0.09l0.29,0.07
	l0.58,0.15l1.16,0.29c0.77,0.16,1.54,0.33,2.3,0.47c3.06,0.57,6.09,0.97,9.1,1.37l4.5,0.59l1.12,0.15l0.56,0.07l0.28,0.04l0.3,0.03
	l1.19,0.14c0.4,0.05,0.8,0.07,1.19,0.11l0.6,0.05c0.2,0.01,0.4,0.02,0.6,0.03c0.4,0.02,0.8,0.04,1.2,0.06l1.21,0.02
	c0.4,0.01,0.81-0.01,1.21-0.01c1.62-0.04,3.24-0.16,4.86-0.39c3.23-0.47,6.45-1.34,9.49-2.67c3.05-1.32,5.9-3.09,8.47-5.18
	c1.17-0.95,2.28-1.98,3.34-3.05c0.18,0.35,0.37,0.7,0.55,1.06c1.2,2.26,2.38,4.52,3.59,6.77l3.63,6.75l0.45,0.84l0.47,0.85l0.95,1.7
	l0.95,1.7l0.99,1.67l0.99,1.67l0.5,0.84l0.52,0.83l2.07,3.3c5.64,8.72,12.02,17.03,19.29,24.61c3.63,3.79,7.48,7.39,11.55,10.75
	c1.01,0.86,2.06,1.66,3.1,2.48c0.52,0.41,1.05,0.8,1.58,1.2l1.6,1.18l1.63,1.14c0.55,0.38,1.08,0.77,1.64,1.13
	c1.11,0.73,2.22,1.47,3.36,2.16c2.26,1.42,4.6,2.71,6.98,3.96c2.39,1.23,4.84,2.35,7.34,3.39c2.51,1.02,5.08,1.93,7.72,2.71
	c1.31,0.38,2.63,0.73,3.97,1.04l0.09,1.73l0.33,4.75c0.12,1.58,0.27,3.16,0.4,4.74l0.1,1.18l0.12,1.17l0.24,2.35l0.47,4.7l0.26,2.38
	l0.29,2.38c0.21,1.64,0.44,3.28,0.68,4.92c-2.32-0.41-4.63-0.91-6.93-1.48c-4.92-1.23-9.79-2.81-14.57-4.66
	c-4.79-1.85-9.49-3.97-14.09-6.32l-0.86-0.44l-0.85-0.45l-1.71-0.91l-1.69-0.94c-0.56-0.31-1.13-0.62-1.69-0.95l-1.67-0.97
	l-0.9-0.52c-0.31-0.17-0.61-0.36-0.92-0.53c-0.61-0.34-1.22-0.68-1.84-1l-0.92-0.48l-0.92-0.47c-2.46-1.24-4.93-2.38-7.42-3.46
	c-2.49-1.08-4.99-2.11-7.52-3.08c-2.52-0.97-5.06-1.89-7.61-2.77c-2.55-0.88-5.12-1.69-7.7-2.48c-5.17-1.55-10.4-2.91-15.69-4.01
	c-5.3-1.09-10.66-1.95-16.1-2.37c-0.68-0.05-1.36-0.11-2.04-0.14l-2.05-0.09l-2.06-0.04l-0.99-0.01c-0.32,0-0.64,0-0.96-0.01
	c-2.55-0.06-5.13-0.27-7.71-0.56c-5.15-0.61-10.29-1.59-15.37-2.85c-5.07-1.27-10.09-2.82-15-4.65c-4.91-1.83-9.73-3.94-14.4-6.34
	c-4.67-2.4-9.19-5.1-13.48-8.13c-4.29-3.03-8.37-6.38-12.11-10.09c-3.74-3.71-7.14-7.77-10.07-12.17c-2.94-4.39-5.4-9.11-7.3-14.07
	c1.69,5.03,3.96,9.88,6.73,14.44c2.77,4.56,6.03,8.82,9.66,12.75c3.63,3.93,7.63,7.52,11.87,10.79c4.24,3.27,8.74,6.22,13.4,8.88
	c4.66,2.66,9.49,5.02,14.44,7.11c4.95,2.09,10.02,3.9,15.18,5.43c5.17,1.52,10.42,2.77,15.78,3.63c2.68,0.43,5.39,0.76,8.13,0.94
	l3.95,0.23l1.92,0.17c0.64,0.06,1.28,0.14,1.92,0.21c5.12,0.62,10.22,1.65,15.27,2.92c5.04,1.28,10.04,2.81,14.97,4.52
	c2.46,0.86,4.91,1.76,7.34,2.71c2.43,0.95,4.84,1.95,7.23,2.98c2.39,1.04,4.75,2.13,7.08,3.26c2.33,1.13,4.63,2.32,6.86,3.56
	l0.83,0.47l0.82,0.48c0.55,0.32,1.08,0.65,1.62,0.97c0.27,0.16,0.52,0.33,0.79,0.5l0.8,0.51l1.72,1.1c0.57,0.37,1.15,0.72,1.73,1.08
	l1.74,1.07l1.76,1.03l0.88,0.52l0.89,0.5c4.75,2.68,9.63,5.14,14.65,7.34c5.02,2.19,10.19,4.12,15.51,5.7
	c3.79,1.12,7.65,2.06,11.59,2.76c0.84,4.11,1.8,8.2,2.88,12.26c3.33,12.42,7.86,24.57,13.61,36.16
	c5.75,11.59,12.73,22.6,20.81,32.78c2.71,3.41,5.54,6.72,8.48,9.94c-0.72,0.04-1.44,0.08-2.17,0.12l-2.94,0.18
	c-3.95,0.27-8,0.6-12.18,1.21l-1.57,0.24c-0.52,0.08-1.05,0.19-1.58,0.29l-1.58,0.3c-0.53,0.1-1.05,0.24-1.57,0.35l-1.57,0.37
	c-0.52,0.12-1.04,0.28-1.55,0.42l-1.55,0.43c-0.26,0.07-0.51,0.15-0.76,0.23l-0.76,0.24c-1.01,0.33-2.03,0.64-3,1l-1.47,0.53
	c-0.49,0.18-0.98,0.35-1.45,0.55l-2.85,1.14l-2.78,1.2c-0.95,0.4-1.79,0.79-2.68,1.18l-2.61,1.16l-2.61,1.14
	c-0.87,0.38-1.74,0.75-2.61,1.12c-1.85,0.79-3.71,1.56-5.57,2.31c-1.27-1.32-2.64-2.53-4.05-3.65c-1.5-1.19-3.07-2.26-4.65-3.22
	c-1.58-0.97-3.18-1.84-4.78-2.64c-3.19-1.6-6.34-2.97-9.39-4.33c-1.53-0.68-3.03-1.35-4.5-2.05c-1.48-0.69-2.92-1.4-4.35-2.14
	c-1.43-0.73-2.81-1.52-4.18-2.32l-1.01-0.62l-0.51-0.31l-0.5-0.32l-1-0.64l-0.98-0.67c-0.66-0.44-1.29-0.91-1.93-1.37
	c-0.64-0.48-1.29-0.98-1.93-1.48l-0.97-0.74l-0.48-0.37l-0.47-0.39l-1.9-1.55c-0.64-0.51-1.26-1.05-1.88-1.59l-1.87-1.61l-1.84-1.65
	c-0.61-0.55-1.23-1.1-1.84-1.67c-1.22-1.13-2.44-2.25-3.64-3.4l-1.81-1.72l-1.81-1.74c-4.83-4.64-9.65-9.4-14.79-13.98
	c-0.64-0.57-1.31-1.13-1.96-1.69l-0.98-0.84c-0.33-0.28-0.67-0.55-1.01-0.82c-0.68-0.55-1.35-1.1-2.04-1.64l-2.11-1.58l-0.53-0.39
	l-0.55-0.38l-1.1-0.75l-1.1-0.75l-1.06-0.69c-1.42-0.91-2.84-1.83-4.29-2.73c-2.88-1.81-5.83-3.59-8.88-5.23
	c-3.05-1.64-6.19-3.17-9.43-4.48c-3.23-1.32-6.57-2.42-9.96-3.29c-3.4-0.86-6.85-1.47-10.32-1.85c-3.47-0.38-6.96-0.49-10.43-0.4
	l-1.3,0.04c-0.43,0.01-0.87,0.05-1.3,0.07l-1.3,0.08l-1.25,0.08l-1.48,0.1c-0.2-1.9-0.52-3.43-0.88-4.63
	c0.17-0.1,0.33-0.21,0.48-0.33c3.14-2.65,0.54-10.93-5.81-18.45c-6.28-7.43-17.04-8.82-17.14-8.84l-0.1-0.01l0,0.1
	c-0.01,0.11-0.43,10.95,5.84,18.38c5.01,5.93,10.87,9.64,14.67,9.64c0.24,0,0.46-0.02,0.68-0.05c0.32,1.1,0.63,2.51,0.82,4.27
	c-0.27,0.02-0.54,0.04-0.82,0.05l-1.25,0.06l-2.5,0.12c-0.83,0.04-1.66,0.05-2.5,0.08c-0.83,0.02-1.67,0.06-2.5,0.07l-2.49,0.02
	c-0.42,0-0.83,0.01-1.25,0.01l-1.24-0.01c-0.83-0.01-1.66-0.01-2.49-0.04l-2.48-0.09c-0.41-0.01-0.83-0.03-1.24-0.06l-1.24-0.07
	c-3.3-0.21-6.58-0.55-9.79-1.15l-1.2-0.23l-0.3-0.06l-0.29-0.07l-0.59-0.14c-0.39-0.1-0.79-0.18-1.18-0.29l-1.15-0.33
	c-0.19-0.06-0.39-0.11-0.57-0.17l-0.56-0.2l-0.56-0.2l-0.28-0.1c-0.09-0.03-0.18-0.07-0.27-0.11l-1.08-0.45l-1.02-0.52
	c-0.17-0.08-0.33-0.18-0.5-0.28l-0.52-0.31c-0.35-0.21-0.69-0.43-1.04-0.66c-0.7-0.45-1.39-0.9-2.08-1.37
	c-1.39-0.93-2.76-1.88-4.13-2.84c-2.74-1.92-5.45-3.89-8.14-5.9c-5.37-4.01-10.64-8.17-15.78-12.49c-2.57-2.16-5.11-4.35-7.6-6.59
	c-2.5-2.24-4.96-4.52-7.36-6.86c-4.81-4.67-9.43-9.56-13.67-14.76c-1.05-1.31-2.09-2.63-3.09-3.98c-0.99-1.35-1.97-2.72-2.89-4.12
	c-1.85-2.8-3.52-5.73-4.91-8.79c1.28,3.11,2.86,6.1,4.62,8.98c0.87,1.44,1.81,2.85,2.76,4.24c0.96,1.39,1.95,2.75,2.97,4.1
	c4.08,5.37,8.56,10.44,13.24,15.3c2.34,2.43,4.73,4.81,7.17,7.15c2.43,2.34,4.91,4.63,7.42,6.89c5.02,4.51,10.18,8.87,15.45,13.1
	c2.64,2.11,5.3,4.19,8,6.22c1.35,1.02,2.71,2.02,4.09,3.02c0.69,0.5,1.38,0.99,2.09,1.47c0.35,0.24,0.71,0.49,1.07,0.73l0.55,0.36
	c0.19,0.12,0.38,0.25,0.59,0.36c0.4,0.22,0.8,0.45,1.21,0.67l1.23,0.57c0.1,0.05,0.21,0.1,0.31,0.14l0.31,0.12l0.62,0.24l0.62,0.24
	c0.21,0.08,0.42,0.14,0.63,0.21l1.26,0.41c0.42,0.13,0.84,0.24,1.26,0.35l0.63,0.17l0.32,0.09l0.32,0.07l1.27,0.29
	c3.39,0.75,6.8,1.21,10.21,1.55l1.28,0.12c0.43,0.04,0.85,0.08,1.28,0.11l2.56,0.18c0.85,0.05,1.7,0.08,2.55,0.12l1.28,0.06
	c0.43,0.02,0.85,0.02,1.28,0.04l2.55,0.06c0.85,0.02,1.7,0.01,2.55,0.02c0.85,0,1.7,0.02,2.55,0l2.55-0.04l1.27-0.02
	c0.42-0.01,0.85-0.02,1.27-0.04l2.54-0.08l1.27-0.04l1.22-0.03c0.41-0.01,0.82-0.03,1.22-0.02l1.22,0.01
	c3.26,0.03,6.51,0.24,9.71,0.7c2.44,0.35,4.86,0.82,7.24,1.42c-0.56,1.12-1.43,2.55-2.78,4.22c-3.68-1.22-10.48,0.69-16.99,5.11
	c-8.05,5.46-10.4,16.26-10.42,16.37l-0.02,0.09l0.09,0.02c0.04,0.01,1.81,0.3,4.42,0.3c3.94,0,9.8-0.66,14.64-3.94
	c8.14-5.52,12.81-12.9,10.41-16.43c-0.22-0.32-0.49-0.6-0.81-0.84c1.41-1.78,2.31-3.31,2.88-4.51c0.27,0.07,0.54,0.15,0.81,0.23
	c3.1,0.91,6.13,2.02,9.09,3.34c2.96,1.31,5.83,2.83,8.65,4.47c2.82,1.65,5.58,3.44,8.33,5.3c1.38,0.93,2.75,1.88,4.13,2.83
	l1.03,0.72l0.96,0.71l0.96,0.7l0.48,0.35l0.47,0.38l1.88,1.51c0.62,0.52,1.23,1.06,1.84,1.59c0.31,0.27,0.61,0.53,0.92,0.8l0.9,0.83
	c0.6,0.56,1.21,1.1,1.8,1.67c4.77,4.54,9.37,9.39,14.08,14.24l1.77,1.82l1.79,1.81c1.19,1.21,2.4,2.41,3.62,3.61
	c0.6,0.6,1.22,1.19,1.84,1.79l1.86,1.78l1.9,1.75c0.63,0.58,1.26,1.17,1.92,1.73l1.95,1.71l0.49,0.43l0.5,0.42l1.01,0.83
	c0.68,0.55,1.33,1.11,2.03,1.66c0.71,0.54,1.41,1.11,2.13,1.62l1.08,0.79l1.1,0.76l0.55,0.38l0.56,0.37l1.12,0.73
	c1.5,0.95,3.02,1.88,4.55,2.73c1.53,0.86,3.08,1.69,4.62,2.48c1.54,0.79,3.09,1.55,4.61,2.29c3.05,1.48,6.03,2.9,8.81,4.42
	c2.6,1.44,5.03,2.96,7.14,4.7c-1.47,0.52-2.93,1.03-4.41,1.53c-14.21,4.76-28.84,8.25-43.67,9.8l-2.78,0.25l-1.39,0.13l-1.39,0.09
	l-2.79,0.18l-2.79,0.11c-0.46,0.02-0.93,0.04-1.4,0.05l-1.39,0.02c-0.69,0.01-1.37,0.02-2.06,0.02c-7.39-0.74-14.75-1.67-22.05-2.9
	c-9.63-1.63-19.15-3.82-28.38-6.9l-3.45-1.17l-3.4-1.3l-1.7-0.65c-0.29-0.1-0.56-0.23-0.84-0.35l-0.84-0.36l-3.35-1.43
	c-1.11-0.5-2.2-1.03-3.31-1.55l-1.65-0.78l-1.63-0.83l-1.63-0.83c-0.54-0.28-1.09-0.54-1.63-0.84l-3.22-1.75
	c-4.28-2.38-8.51-4.89-12.76-7.44c-1.07-0.63-2.11-1.28-3.16-1.92c-1.05-0.64-2.1-1.27-3.15-1.93l-6.28-3.92
	c-16.72-10.54-33.34-21.28-49.95-32.03c-16.6-10.76-33.18-21.56-49.73-32.39c16.22,11.33,32.46,22.64,48.73,33.9
	c16.27,11.26,32.55,22.5,48.98,33.56l6.18,4.12c1.03,0.69,2.08,1.36,3.12,2.04c1.04,0.67,2.08,1.37,3.12,2.03
	c4.16,2.67,8.36,5.34,12.65,7.9l3.24,1.89c0.54,0.32,1.09,0.61,1.64,0.92l1.65,0.9l1.65,0.9l1.68,0.85c1.12,0.57,2.24,1.14,3.36,1.7
	l2.2,1.02c-3.52-0.52-7.11-0.89-10.72-0.94c-4.04-0.07-8.1,0.21-12.06,0.81c-3.97,0.6-7.85,1.5-11.64,2.59
	c-3.79,1.09-7.5,2.37-11.16,3.74l-2.73,1.05c-0.91,0.36-1.8,0.73-2.71,1.1l-1.35,0.55l-1.34,0.57l-2.68,1.15
	c-7,3.05-14.14,5.81-21.38,8.29l-2.73,0.9l-1.36,0.45l-1.37,0.43l-2.74,0.86l-2.75,0.82l-1.38,0.41l-1.38,0.39l-2.77,0.78
	c-1.85,0.49-3.7,1-5.56,1.46c-3.72,0.94-7.46,1.81-11.22,2.59c-3.76,0.79-7.53,1.5-11.32,2.14c-3.79,0.64-7.6,1.19-11.41,1.65
	c-3.82,0.45-7.65,0.85-11.49,1.04c3.85,0,7.7-0.21,11.55-0.48c3.85-0.28,7.69-0.65,11.52-1.1c3.83-0.45,7.66-0.98,11.47-1.59
	c3.82-0.6,7.62-1.29,11.41-2.05c1.9-0.37,3.79-0.79,5.68-1.19l2.83-0.65l1.41-0.32l1.41-0.35l2.82-0.69l2.81-0.73l1.4-0.37l1.4-0.39
	l2.8-0.78c7.45-2.14,14.82-4.58,22.08-7.34l2.68-1l1.34-0.5l1.35-0.47c0.9-0.31,1.8-0.64,2.7-0.94l2.71-0.89
	c3.61-1.16,7.25-2.21,10.91-3.07c3.65-0.86,7.33-1.52,11-1.89c3.67-0.37,7.34-0.44,10.99-0.2c0.46,0.02,0.91,0.08,1.37,0.11
	c0.46,0.04,0.91,0.08,1.37,0.13l1.37,0.17l0.68,0.08l0.68,0.1l1.37,0.21c0.46,0.08,0.91,0.16,1.37,0.24
	c0.91,0.15,1.82,0.35,2.74,0.53c3.65,0.76,7.32,1.72,11.03,2.7c3.7,0.98,7.44,1.99,11.21,2.95c3.77,0.96,7.57,1.86,11.39,2.69
	c3.82,0.83,7.67,1.58,11.53,2.24l2.95,0.46l1.48,0.23l1.48,0.19l2.97,0.37l2.97,0.28l1.49,0.14c0.5,0.04,0.99,0.07,1.49,0.1
	l2.98,0.19c0.99,0.05,1.99,0.08,2.98,0.11l1.49,0.05c0.5,0.01,0.99,0.01,1.49,0.02l2.99,0.03l2.98-0.05l1.49-0.03l1.49-0.06
	l2.98-0.13c15.89-0.88,31.57-3.82,46.79-8.1c7.61-2.15,15.11-4.63,22.48-7.34c0.92-0.34,1.84-0.68,2.76-1.02l2.74-1.04l2.73-1.05
	c0.9-0.35,1.82-0.71,2.66-1.02l2.58-0.96l2.56-0.88c0.43-0.15,0.85-0.28,1.27-0.41l1.27-0.39c0.85-0.28,1.68-0.48,2.52-0.71
	c3.35-0.88,6.64-1.45,10.11-1.79c3.46-0.34,7.11-0.46,10.85-0.53l2.83-0.04c0.94-0.01,1.9-0.01,2.85-0.02l5.75-0.02l5.79-0.02
	l5.16-0.04c0.29,0.24,0.58,0.48,0.87,0.72c5.05,4.14,10.33,8.02,15.9,11.57c2.79,1.78,5.63,3.47,8.65,5.08
	c0.38,0.2,0.76,0.4,1.16,0.6c0.4,0.2,0.79,0.4,1.24,0.61l1.66,0.9c1.31,0.72,2.62,1.46,3.94,2.22c5.25,3.03,10.45,6.24,15.55,9.57
	c5.1,3.34,10.12,6.8,15.03,10.39c9.81,7.19,19.23,14.87,27.97,23.12c4.37,4.13,8.57,8.39,12.54,12.82c1.16,1.29,2.3,2.6,3.42,3.92
	c-1.1-0.58-2.21-1.15-3.32-1.7c-3.27-1.62-6.59-3.13-9.96-4.49c-3.37-1.36-6.77-2.61-10.2-3.74c-3.43-1.13-6.89-2.15-10.37-3.05
	c-3.48-0.9-6.98-1.7-10.5-2.4c-7.03-1.4-14.12-2.39-21.22-3.02c-7.11-0.61-14.23-0.89-21.4-0.69c-0.9,0.03-1.8,0.06-2.71,0.11
	c-0.45,0.02-0.91,0.05-1.37,0.08l-0.71,0.05c-0.12,0.01-0.24,0.02-0.37,0.03l-0.39,0.04c-0.26,0.03-0.53,0.06-0.77,0.09l-0.7,0.1
	c-0.47,0.07-0.92,0.14-1.36,0.21l-0.67,0.11l-0.66,0.12l-1.31,0.24c-3.47,0.64-6.89,1.33-10.31,2.02
	c-6.83,1.38-13.63,2.77-20.44,4.11c-6.81,1.34-13.62,2.64-20.44,3.82c-3.41,0.59-6.82,1.15-10.23,1.66
	c-3.41,0.5-6.83,0.96-10.23,1.31c-0.85,0.08-1.7,0.17-2.55,0.23l-1.27,0.1c-0.42,0.03-0.84,0.05-1.27,0.07
	c-0.42,0.02-0.85,0.05-1.26,0.06l-1.25,0.03c-0.84,0.02-1.67,0-2.52-0.03c-3.37-0.13-6.79-0.5-10.21-0.94
	c-6.85-0.89-13.71-2.07-20.62-3.03c-3.46-0.48-6.92-0.91-10.4-1.23c-3.48-0.31-6.98-0.52-10.48-0.5c-3.5,0.02-7.01,0.24-10.45,0.9
	c-1.72,0.32-3.42,0.77-5.06,1.36c-1.65,0.58-3.23,1.34-4.71,2.26c1.53-0.83,3.13-1.5,4.8-1.99c1.66-0.49,3.36-0.84,5.07-1.07
	c3.42-0.46,6.89-0.5,10.34-0.33c3.45,0.17,6.89,0.56,10.31,1.06c3.42,0.5,6.83,1.11,10.23,1.77c6.81,1.32,13.58,2.86,20.47,4.15
	c3.45,0.63,6.92,1.21,10.49,1.54c0.89,0.08,1.79,0.15,2.69,0.18l1.35,0.05c0.45,0.02,0.89,0.01,1.34,0.01c0.45,0,0.89,0.01,1.34,0
	l1.33-0.03c0.89-0.01,1.77-0.06,2.65-0.1c3.53-0.16,7.03-0.44,10.52-0.77c3.49-0.32,6.97-0.7,10.44-1.11
	c6.94-0.81,13.85-1.75,20.76-2.72c6.9-0.97,13.79-2,20.66-3c3.43-0.5,6.87-1,10.26-1.43l1.26-0.16l0.63-0.08l0.62-0.07
	c0.41-0.05,0.83-0.09,1.22-0.12l0.59-0.05c0.19-0.01,0.35-0.02,0.53-0.03l0.26-0.01c0.09-0.01,0.19-0.01,0.28-0.01l0.59-0.01
	c0.4,0,0.82-0.01,1.23-0.01c0.83,0,1.67,0.02,2.51,0.04c6.73,0.18,13.51,0.81,20.21,1.76c6.71,0.96,13.35,2.27,19.88,3.94
	c0.35,0.09,0.7,0.19,1.06,0.28c-0.23,0.02-0.47,0.04-0.7,0.06c-3.85,0.39-7.68,1.15-11.37,2.35c-3.69,1.2-7.26,2.86-10.49,5.01
	c-3.23,2.14-6.13,4.75-8.57,7.69c-2.44,2.94-4.41,6.21-5.96,9.62c-1.55,3.41-2.68,6.97-3.5,10.56c-0.41,1.8-0.73,3.61-1,5.43
	c-0.26,1.82-0.45,3.64-0.6,5.46c0.33-1.8,0.71-3.59,1.15-5.35c0.45-1.77,0.96-3.51,1.54-5.23c1.17-3.43,2.62-6.75,4.43-9.83
	c1.8-3.08,3.96-5.92,6.46-8.37c2.49-2.45,5.32-4.5,8.37-6.09c3.05-1.6,6.32-2.72,9.67-3.44c3.35-0.72,6.79-1.04,10.24-1.03
	c3.45,0.01,6.9,0.33,10.33,0.9c3.42,0.57,6.81,1.38,10.15,2.38c6.67,2.01,13.14,4.76,19.3,8.05c6.15,3.29,12.01,7.11,17.42,11.38
	c1.02,0.81,2.03,1.63,3.02,2.48c2.25,2.22,4.41,4.52,6.46,6.9c0.52,0.62,1.03,1.24,1.54,1.87c0.25,0.31,0.52,0.62,0.76,0.94
	l0.74,0.96l0.74,0.96l0.37,0.48c0.12,0.16,0.24,0.33,0.35,0.49l1.41,1.96c0.24,0.32,0.46,0.66,0.68,0.99l0.67,1l0.67,1
	c0.22,0.33,0.43,0.68,0.64,1.02l1.27,2.05l1.2,2.09c0.2,0.35,0.41,0.69,0.6,1.05l0.57,1.06c0.28,0.54,0.57,1.07,0.85,1.61
	c0.08,0.33,0.15,0.66,0.22,0.98l0.25-0.07l0.87,1.78c0.17,0.36,0.36,0.72,0.52,1.09l0.49,1.1c0.32,0.74,0.67,1.46,0.98,2.2
	l0.24,0.59c0.61,2.2,1.18,4.41,1.7,6.64c1.69,7.28,2.92,14.74,3.79,22.31c0.43,3.77,0.78,7.56,1.06,11.37
	c-1.72-1.63-3.47-3.26-5.26-4.87c-4.21-3.79-8.67-7.52-13.5-10.91c-4.82-3.4-10.02-6.43-15.44-8.89
	c-5.42-2.47-11.02-4.38-16.63-5.87l-2.11-0.54l-1.05-0.27c-0.35-0.09-0.7-0.16-1.06-0.23l-4.22-0.91c-1.41-0.26-2.81-0.51-4.22-0.76
	l-1.05-0.19l-0.53-0.09l-0.53-0.08l-2.1-0.3l-2.1-0.3l-1.05-0.15c-0.35-0.05-0.7-0.08-1.05-0.13l-4.2-0.48
	c-1.4-0.18-2.79-0.27-4.19-0.4c-1.39-0.12-2.79-0.25-4.18-0.35l-4.17-0.26l-2.08-0.13c-0.7-0.05-1.39-0.06-2.08-0.1l-4.16-0.18
	c-0.69-0.03-1.39-0.06-2.08-0.08l-2.07-0.05c-11.06-0.3-22.06-0.23-33.04,0.01l-8.22,0.23l-2.05,0.06l-2.05,0.07l-4.1,0.15
	l-4.1,0.15l-1.02,0.04l-1.01,0.03l-2.01,0.06l-8.06,0.22c-10.76,0.12-21.53-0.13-32.3-0.71c-10.76-0.66-21.52-1.65-32.24-2.97
	l-8.04-1.06c-2.68-0.39-5.35-0.8-8.02-1.2l-2.01-0.3c-0.67-0.11-1.33-0.22-2-0.34l-4-0.68l-4-0.68l-3.99-0.75
	c-10.64-1.99-21.23-4.29-31.75-6.89c-10.52-2.6-20.98-5.5-31.34-8.7c-9.18-2.84-18.3-5.88-27.32-9.2c-3.15-1.6-6.26-3.31-9.28-5.14
	c-3.32-2.01-6.55-4.15-9.66-6.47c-3.11-2.32-6.09-4.81-8.87-7.51c-2.77-2.71-5.34-5.63-7.5-8.84c-0.14-0.2-0.27-0.4-0.4-0.61
	l-0.39-0.61c-0.26-0.41-0.5-0.83-0.74-1.25c-0.47-0.85-0.93-1.7-1.32-2.58c-0.81-1.76-1.47-3.59-1.87-5.48
	c-0.22-0.94-0.35-1.91-0.44-2.87c-0.02-0.48-0.07-0.97-0.06-1.45c0-0.24-0.01-0.49,0-0.73l0.03-0.73c0.01-0.24,0.03-0.48,0.06-0.73
	c0.03-0.24,0.05-0.48,0.08-0.73c0.08-0.48,0.14-0.96,0.26-1.44c0.19-0.96,0.5-1.89,0.82-2.81c-0.36,0.91-0.7,1.83-0.93,2.78
	c-0.14,0.47-0.21,0.96-0.32,1.44c-0.04,0.24-0.07,0.49-0.11,0.73c-0.04,0.24-0.07,0.49-0.09,0.73l-0.06,0.74
	c-0.02,0.25-0.02,0.49-0.03,0.74c-0.03,0.49,0,0.98,0.01,1.48c0.06,0.98,0.15,1.97,0.33,2.94c0.34,1.95,0.94,3.84,1.69,5.67
	c0.37,0.92,0.8,1.81,1.25,2.69c0.24,0.43,0.46,0.87,0.71,1.3l0.37,0.64c0.12,0.21,0.25,0.43,0.38,0.63
	c2.08,3.36,4.58,6.45,7.29,9.31c2.72,2.86,5.66,5.51,8.72,7.99c2.2,1.78,4.47,3.47,6.79,5.08c-1.78-0.72-3.56-1.45-5.33-2.21
	c-1.24-0.53-2.49-1.07-3.71-1.61l-0.51-0.23l-0.49-0.2l-0.97-0.39c-0.65-0.26-1.29-0.5-1.94-0.75c-2.59-0.97-5.2-1.86-7.82-2.68
	c-5.25-1.65-10.58-3.05-15.97-4.17c-5.39-1.11-10.84-1.94-16.32-2.39c-5.49-0.44-11.01-0.51-16.5-0.02
	c-5.48,0.48-10.94,1.52-16.14,3.32c-5.2,1.79-10.15,4.38-14.46,7.77c-2.16,1.69-4.16,3.58-5.98,5.62c-1.82,2.04-3.45,4.24-4.91,6.54
	c1.53-2.25,3.24-4.39,5.12-6.35c1.88-1.97,3.92-3.76,6.11-5.36c4.38-3.2,9.31-5.57,14.47-7.15c5.16-1.59,10.53-2.42,15.91-2.7
	c5.39-0.29,10.8-0.04,16.16,0.58c5.36,0.62,10.68,1.62,15.93,2.9c5.25,1.28,10.43,2.83,15.51,4.63c2.54,0.9,5.06,1.86,7.55,2.89
	c0.62,0.26,1.24,0.52,1.85,0.79l0.91,0.4l0.45,0.2l0.42,0.21c1.24,0.61,2.48,1.2,3.73,1.78c4.98,2.32,10,4.5,15.06,6.6
	c10.11,4.21,20.37,8.07,30.72,11.66c10.35,3.59,20.81,6.89,31.36,9.89c10.55,3,21.19,5.7,31.9,8.09l4.02,0.9l4.03,0.84l4.03,0.83
	c0.67,0.14,1.34,0.28,2.02,0.41l2.02,0.38c2.7,0.5,5.4,1.02,8.1,1.5l8.13,1.36c10.86,1.72,21.79,3.11,32.76,4.16
	c10.98,0.98,21.99,1.61,33.04,1.88l8.29,0.06l2.07,0.01l1.04,0.01l1.02,0l4.07-0.01l4.07-0.01l2.03,0l2.03,0.01l8.13,0.05
	c10.83,0.14,21.63,0.44,32.35,1.11l2.01,0.12c0.67,0.04,1.34,0.1,2,0.15l4,0.31c0.67,0.06,1.34,0.09,2,0.16l1.99,0.2l3.98,0.39
	c1.32,0.14,2.63,0.32,3.95,0.47c1.31,0.17,2.64,0.3,3.94,0.51l3.91,0.58c0.32,0.05,0.65,0.09,0.98,0.15l0.97,0.17l1.93,0.35
	l1.93,0.35l0.48,0.09l0.48,0.1l0.95,0.2c1.27,0.27,2.54,0.54,3.8,0.82l3.74,0.95c0.31,0.08,0.63,0.15,0.93,0.24l0.92,0.27l1.83,0.54
	c4.87,1.48,9.56,3.27,13.99,5.48c4.43,2.21,8.6,4.83,12.59,7.85c3.99,3.02,7.8,6.42,11.57,10.06c3.76,3.64,7.47,7.48,11.21,11.41
	c2.18,2.29,4.38,4.6,6.59,6.92c0.02,3.03,0.02,6.08,0,9.13C512.21,658.52,511.63,674.44,511.35,690.6z"/>
</svg>
